<?xml version="1.0" standalone="no"?>
<!DOCTYPE svg PUBLIC "-//W3C//DTD SVG 20010904//EN"
 "http://www.w3.org/TR/2001/REC-SVG-20010904/DTD/svg10.dtd">
<svg version="1.0" xmlns="http://www.w3.org/2000/svg"
 width="441.000000pt" height="1280.000000pt" viewBox="0 0 441.000000 1280.000000"
 preserveAspectRatio="xMidYMid meet">
<g transform="translate(0.000000,1280.000000) scale(0.100000,-0.100000)"
fill="#000000" stroke="none">
<path d="M1873 12450 c-124 -10 -255 -34 -340 -62 -106 -35 -140 -93 -163
-277 -10 -86 -8 -101 14 -101 8 0 19 -7 26 -15 7 -8 28 -15 46 -15 21 0 34 -5
34 -12 0 -7 -19 -50 -42 -95 -55 -109 -58 -163 -11 -216 25 -28 31 -44 28 -65
-3 -15 -28 -234 -56 -487 -27 -253 -52 -469 -55 -480 -2 -11 -18 -123 -34
-250 -17 -126 -55 -410 -85 -630 -30 -220 -66 -490 -80 -600 -57 -444 -82
-568 -144 -700 -15 -33 -83 -150 -151 -260 -147 -238 -241 -415 -269 -507 -11
-37 -28 -118 -38 -180 -16 -106 -17 -319 -18 -3208 0 -2943 1 -3101 18 -3210
44 -276 141 -438 311 -520 254 -122 614 -170 1266 -170 688 0 1177 67 1413
192 159 85 229 204 271 463 15 91 17 364 14 3190 -3 2898 -4 3096 -21 3185
-55 297 -133 496 -287 735 -127 197 -204 364 -249 543 -20 79 -79 470 -125
827 -76 595 -137 1044 -146 1075 -11 40 -81 565 -104 780 -9 80 -18 165 -21
188 -4 40 -2 46 30 75 68 60 70 126 5 226 -44 68 -49 89 -22 97 9 3 25 10 34
15 10 5 27 9 39 9 21 0 22 2 15 96 -13 188 -36 241 -126 286 -104 52 -284 75
-645 82 -126 2 -276 1 -332 -4z"/>
</g>
</svg>
